<?xml version="1.0" encoding="UTF-8"?>
<svg class="css-1j8o68f" viewBox="0 0 439 139" xmlns="http://www.w3.org/2000/svg">
<defs>
<linearGradient id="a">
<stop stop-color="#7f00ff" offset="0"/>
<stop stop-color="#e100ff" offset="1"/>
</linearGradient>
</defs>
<g transform="matrix(1.1464 0 0 1.1464 20 20)" fill="url(#a)" featurekey="symbolContainer">
<path d="M103.8 51.9l-7.3 8.9 3.3 10.9-10.1 5.5-1.1 11.4-11.4 1.1-5.5 10.1-10.9-3.3-8.9 7.3-8.9-7.3-11 3.3-5.4-10.1-11.4-1.1-1.1-11.4-10.2-5.5 3.4-10.9L0 51.9 7.3 43 3.9 32l10.2-5.4 1.1-11.4 11.4-1.1L32 3.9l11 3.4L51.9 0l8.9 7.3 10.9-3.4 5.5 10.2 11.4 1.1 1.1 11.4L99.8 32l-3.3 11 7.3 8.9z" xmlns="http://www.w3.org/2000/svg"/>
</g>
<g transform="matrix(1.6548 0 0 1.6548 47.543 15.414)" fill="#eee" featurekey="monogramFeature-0">
<path d="m2.1 60.12c-0.6 0.06-0.84-1.92-0.36-2.04 3.48-0.9 6.24-1.44 6.24-5.88v-26.76c0-3.9-2.52-4.98-5.1-5.58-0.48-0.12-0.18-2.04 0.3-1.98 4.44 0.42 11.46 0.36 15.48 0.36 5.46 0 9.48-0.24 14.28-0.36 1.44 0 1.44 0.96 1.14 2.34l-1.44 5.64c-0.18 0.84-1.68 0.84-1.92 0-0.9-2.88-2.7-4.68-10.26-4.68-4.38 0-5.76 1.08-5.76 4.32v9.84c0 1.56 0.78 1.86 1.98 1.86h1.26c5.04 0 9.18-0.42 11.7-2.76 0.6-0.54 1.92-0.42 1.38 0.72l-3.48 7.56c-0.42 1.02-1.32 0.9-1.98 0.06-1.38-1.92-4.5-2.7-8.1-2.7h-0.78c-1.2 0-1.98 0.3-1.98 1.86v10.26c0 3.42 1.5 4.62 6.6 4.62 9.36 0 12.72-4.02 14.16-6.42 0.48-0.72 1.98-0.42 1.98 0.6 0 3.18-2.52 9.12-6.24 9.12-3.18-0.18-6.72-0.36-11.76-0.36-5.58 0-11.82-0.18-17.34 0.36z"/>
</g>
<g transform="matrix(1.7119 0 0 1.7119 155.92 24.041)" fill="#111" featurekey="nameFeature-0">
<path d="m18.16 36.92c0.36-0.08 0.68 1 0.44 1.12-1.56 0.76-4.8 2.6-5.56 2.6-4.92 0-11.24-2.32-11.24-9.4 0-4.76 2.92-10.56 10.08-10.56 6.04 0 6.8 4.32 6.8 6 0 1.04-0.32 2.6-0.72 3.52l-11.88 0.32c0.76 4.96 4.8 7.04 7.96 7.04 0.36 0 2.08-0.2 4.12-0.64zm-7.68-13.68c-3.16 0-4.4 2.16-4.52 5.2l8.68-0.28c0.4-2.16-0.64-4.92-4.16-4.92zm18.44 17.4c-3.24 0-6.64-1.32-6.2-2.52l0.64-1.68c0.92-2.44 2.56 1.76 7.04 1.76 3.88 0 4.4-2.56 1.32-4.12l-5.24-2.64c-6.12-3.08-4.08-10.76 3.76-10.76 2.96 0 6 1.2 5.52 2.36l-0.68 1.68c-0.96 2.4-2.48-1.56-6.44-1.56-3.04 0-3.6 2.56-0.8 3.96l5.44 2.76c6.4 3.24 4.24 10.76-4.36 10.76zm17.92 0c-3.24 0-6.64-1.32-6.2-2.52l0.64-1.68c0.92-2.44 2.56 1.76 7.04 1.76 3.88 0 4.4-2.56 1.32-4.12l-5.24-2.64c-6.12-3.08-4.08-10.76 3.76-10.76 2.96 0 6 1.2 5.52 2.36l-0.68 1.68c-0.96 2.4-2.48-1.56-6.44-1.56-3.04 0-3.6 2.56-0.8 3.96l5.44 2.76c6.4 3.24 4.24 10.76-4.36 10.76zm27.84-3.72c0.36-0.08 0.68 1 0.44 1.12-1.56 0.76-4.8 2.6-5.56 2.6-4.92 0-11.24-2.32-11.24-9.4 0-4.76 2.92-10.56 10.08-10.56 6.04 0 6.8 4.32 6.8 6 0 1.04-0.32 2.6-0.72 3.52l-11.88 0.32c0.76 4.96 4.8 7.04 7.96 7.04 0.36 0 2.08-0.2 4.12-0.64zm-7.68-13.68c-3.16 0-4.4 2.16-4.52 5.2l8.68-0.28c0.4-2.16-0.64-4.92-4.16-4.92zm11.84 16.76c-0.32 0-0.6-1.16-0.28-1.2 1.2-0.16 2.76-0.72 2.76-3.04v-9.6c0-1.92-1.04-2.36-2.72-2.56-0.32-0.04-0.16-1.08 0.16-1.16l6.32-1.76c0.48-0.12 0.68 0.2 0.68 0.6 0 1.12 0.32 1.52 0.96 1.28 1.96-0.72 3.84-1.88 6.24-1.88 3.92 0 5.28 3 5.28 5.6v9.48c0 2.32 1.56 2.88 2.76 3.04 0.32 0.04 0.04 1.2-0.24 1.2h-8.92c-0.28 0-0.48-1.16-0.24-1.2 1.52-0.24 2.36-0.92 2.36-3.04v-7.68c0-3.36-1.64-4.12-4.2-4.12-1.72 0-4.16 0.48-4.16 1.52v10.28c0 2.12 1.08 2.84 2.56 3.04 0.28 0.04 0.04 1.2-0.28 1.2h-9.04zm32 0.64c-1.64 0-3.84-1.52-3.84-2.68v-11.56c0-2.32-0.68-3-3.48-3-0.44 0-0.44-1.24-0.12-1.36 3.04-1.2 4.52-2.28 6.68-4.76 0.52-0.6 1.6 0 1.44 0.68-0.16 0.72-0.24 1.32-0.24 1.8 0 1.44 0.64 1.88 1.6 1.88 1.48 0 3.32-0.4 4.76-0.52 0.4-0.04 0.56 0.32 0.56 0.84 0 1.04-0.64 2.52-1.28 2.48l-1.56-0.12c-2.72-0.2-4.12-0.16-4.12 1.68v9.44c0 1.52 0.76 2.08 2.16 2.08 1.24 0 3.44-0.24 4.52-0.36 0.32-0.04 0.68 1.16 0.28 1.32-2.2 0.88-4.08 1.44-7.36 2.16zm14.72-23.72c-0.88 0-3.04-1.88-3.04-3.04s2.16-3.04 3.04-3.04 3.04 1.88 3.04 3.04-2.16 3.04-3.04 3.04zm-4.36 23.08c-0.32 0-0.6-1.16-0.28-1.2 1.24-0.16 2.8-0.72 2.8-3.04v-8.84c0-2.44-0.64-3.04-2.72-3.32-0.32-0.04-0.2-1.08 0.08-1.16l7.08-1.68c0.4-0.08 0.6 0.2 0.48 0.72-0.28 1.28-0.64 3.64-0.64 6.24v8.04c0 2.32 1.56 2.88 2.8 3.04 0.28 0.04 0.04 1.2-0.28 1.2h-9.32zm18.2 0.64c-2.76 0-5.48-1.64-5.48-4.88 0-2.16 1.28-3.32 4.16-4.24l5.84-1.88c1.2-0.4 1.56-0.44 1.56-1.44v-1.6c0-2.48-1.24-2.76-2.8-2.76-2.12 0-4.64 0.56-6.12 0.72-0.36 0.04-0.6-0.16-0.64-0.44l-0.08-0.72c-0.12-1.04 5.96-2.72 9-2.72 4.64 0 4.96 3.68 4.96 6.52v8.44c0 3.36 2.88 2 3.44 2.36 0.2 0.12 0.28 0.4 0.28 0.56 0 0.84-3.4 2.08-5.08 2.08-1.28 0-2.08-0.72-3.04-2.76-3.8 2.32-4.64 2.76-6 2.76zm1.92-2.96c2.04 0 4.2-1.44 4.2-3.48v-3.12c-0.24 0.16-0.2 0.2-0.96 0.44l-4.04 1.36c-1.28 0.44-1.92 1.12-1.92 2.32 0 1.52 1.04 2.48 2.72 2.48zm14.44 2.32c-0.32 0-0.6-1.16-0.28-1.2 1.2-0.16 2.72-0.72 2.72-3.04v-17.6c0-4.4-0.6-5.24-3.08-5.52-0.32-0.04-0.2-1.08 0.08-1.12l7.44-1.6c0.36-0.08 0.68 0.2 0.56 0.72-0.28 1.28-0.72 3.84-0.72 9.12v16c0 2.32 1.52 2.88 2.76 3.04 0.28 0.04 0.04 1.2-0.28 1.2h-9.2z"/>
</g>
<g transform="matrix(1.0212 0 0 1.0212 158.18 98.199)" fill="#111" featurekey="sloganFeature-0">
<path d="m15.5 19.5c0.16 0 0.12 0.54 0 0.58-1.26 0.42-3 0.36-4.2-1.18l-3.08-3.96c-0.86-1.12-1.88-1.28-3.28-1.3v3.88c0 1.4 0.96 1.64 2.24 1.8 0.14 0.02 0.04 0.68-0.12 0.68h-6.06c-0.16 0-0.28-0.66-0.12-0.68 1.02-0.14 1.66-0.54 1.66-1.8v-8.92c0-1.32-0.7-1.7-1.66-1.96-0.16-0.04-0.06-0.7 0.12-0.68 0.78 0.1 1.66 0.12 2.3 0.12 1.48 0 2.86-0.12 3.82-0.12 3.02 0 5.04 1.24 5.04 3.7 0 2.32-1.88 3.46-3.56 3.56v0.1c0.8 0 1.38 0.34 2.26 1.44l2.98 3.74c0.62 0.78 1.22 1 1.66 1zm-9.98-6.78c2.98 0 4.12-0.52 4.12-2.52 0-2.14-1.36-3.2-3.14-3.2-1.18 0-1.56 0.48-1.56 1.6v4.12h0.58zm11.08 7.32c-0.2 0.02-0.28-0.68-0.12-0.72 1.16-0.3 2.06-0.48 2.06-1.96v-8.88c0-1.28-0.82-1.62-1.68-1.84-0.16-0.04-0.06-0.7 0.1-0.68 1.46 0.16 3.98 0.12 5.2 0.12 1.82 0 3.14-0.08 4.78-0.12 0.48 0 0.48 0.32 0.38 0.78l-0.48 1.9c-0.06 0.28-0.56 0.28-0.64 0-0.3-0.98-0.9-1.54-3.4-1.54-1.4 0-1.86 0.36-1.86 1.4v3.26c0 0.52 0.26 0.62 0.66 0.62h0.44c1.62 0 3.02-0.16 3.84-0.9 0.2-0.18 0.64-0.14 0.46 0.26l-1.14 2.52c-0.16 0.36-0.46 0.32-0.68 0.02-0.46-0.64-1.48-0.9-2.64-0.9h-0.28c-0.4 0-0.66 0.1-0.66 0.62v3.36c0 1.14 0.48 1.56 2.14 1.56 3.02 0 4.22-1.38 4.7-2.14 0.14-0.22 0.68-0.12 0.68 0.22 0 1.02-0.86 3.04-2.12 3.04-1.12-0.06-2.22-0.12-3.9-0.12-1.84 0-4.02-0.06-5.84 0.12zm13.36 0c-0.2 0.02-0.28-0.68-0.12-0.72 1.16-0.3 2.06-0.48 2.06-1.96v-8.88c0-1.28-0.82-1.62-1.68-1.84-0.16-0.04-0.06-0.7 0.1-0.68 0.82 0.1 1.66 0.12 2.5 0.12 1.56 0 2.96-0.12 3.98-0.12 4.84 0 7.46 2.88 7.46 6.74 0 3.84-2.62 7.34-7.48 7.34-0.96 0-2.2-0.12-3.68-0.12-1.24 0-2.22 0.02-3.14 0.12zm7.02-1.06c3.26 0 4.88-1.76 4.88-5.14 0-3.82-2.08-6.82-5.68-6.82-1.42 0-1.88 0.44-1.88 1.46v8.88c0 1.08 0.74 1.62 2.68 1.62zm16.66 1.34c-2.82 0-5.98-1.5-5.98-5.56v-6.28c0-1.26-0.64-1.68-1.62-1.8-0.16-0.02-0.04-0.68 0.12-0.68h5.46c0.16 0 0.28 0.66 0.12 0.68-0.8 0.1-1.6 0.4-1.6 1.8v6.38c0 2.8 1.62 4.1 3.74 4.1 2.18 0 3.92-1.3 3.92-4.1v-6.38c0-1.3-0.74-1.66-1.72-1.8-0.14-0.02-0.04-0.68 0.12-0.68h4.5c0.14 0 0.26 0.66 0.1 0.68-0.8 0.1-1.6 0.4-1.6 1.8v6.26c0 3.68-2.38 5.58-5.56 5.58zm23.3-1c0.26 0.02 0.18 0.68-0.04 0.68h-5.76c-0.24 0-0.32-0.66-0.04-0.68 1.26-0.1 1.08-0.8 0.14-2.12l-2.12-2.96-2.34 2.96c-1.12 1.4-0.86 2.02 0.28 2.12 0.22 0.02 0.2 0.68-0.06 0.68h-4.6c-0.26 0-0.32-0.66-0.06-0.68 0.8-0.06 1.94-0.8 2.98-2.12l3.12-3.92-3.18-4.46c-1.08-1.5-2.08-2.08-2.88-2.14-0.28-0.02-0.22-0.68 0.06-0.68h5.74c0.24 0 0.3 0.66 0.06 0.68-1.3 0.12-1.12 0.78-0.16 2.12l1.84 2.6 2.06-2.6c1.08-1.36 0.88-2.04-0.24-2.12-0.28-0.02-0.2-0.68 0.04-0.68h4.6c0.24 0 0.3 0.66 0.04 0.68-0.78 0.06-1.94 0.8-2.98 2.12l-2.82 3.56 3.42 4.82c1.06 1.48 2.1 2.08 2.9 2.14zm5.26 0.72c-0.2 0.02-0.28-0.68-0.12-0.72 1.16-0.3 2.06-0.48 2.06-1.96v-8.88c0-1.28-0.82-1.62-1.68-1.84-0.16-0.04-0.06-0.7 0.1-0.68 1.46 0.16 3.98 0.12 5.2 0.12 1.82 0 3.14-0.08 4.78-0.12 0.48 0 0.48 0.32 0.38 0.78l-0.48 1.9c-0.06 0.28-0.56 0.28-0.64 0-0.3-0.98-0.9-1.54-3.4-1.54-1.4 0-1.86 0.36-1.86 1.4v3.26c0 0.52 0.26 0.62 0.66 0.62h0.44c1.62 0 3.02-0.16 3.84-0.9 0.2-0.18 0.64-0.14 0.46 0.26l-1.14 2.52c-0.16 0.36-0.46 0.32-0.68 0.02-0.46-0.64-1.48-0.9-2.64-0.9h-0.28c-0.4 0-0.66 0.1-0.66 0.62v3.36c0 1.14 0.48 1.56 2.14 1.56 3.02 0 4.22-1.38 4.7-2.14 0.14-0.22 0.68-0.12 0.68 0.22 0 1.02-0.86 3.04-2.12 3.04-1.12-0.06-2.22-0.12-3.9-0.12-1.84 0-4.02-0.06-5.84 0.12zm28.1-0.72c0.28 0.04 0.2 0.68-0.04 0.68h-5.28c-0.26 0-0.28-0.64-0.06-0.68 0.74-0.14 1.54-0.4 0.8-2.12l-0.22-0.5c-0.2-0.48-0.54-0.52-1.14-0.52h-4.08c-0.6 0-0.94 0.04-1.14 0.52l-0.2 0.5c-0.7 1.72 0.06 1.98 1.02 2.12 0.26 0.04 0.2 0.68-0.06 0.68h-4.32c-0.24 0-0.3-0.64-0.06-0.68 0.82-0.14 1.3-0.42 2.04-2.12l3.38-7.76c0.78-1.76 1.02-2.58 1.02-3.34 0-0.12 1.4-0.44 1.46-0.3l4.88 11.38c0.72 1.7 1.2 2.02 2 2.14zm-6.08-4.26c0.28 0 0.58-0.04 0.46-0.32l-2.34-5.6-2.36 5.6c-0.12 0.28 0.18 0.32 0.46 0.32h3.78zm11.88 5.26c-1.64 0-4.14-0.72-3.9-1.6l0.2-0.74c0.56-2.1 1.22 0.98 4.52 0.98 1.68 0 2.5-0.82 2.5-1.98 0-0.94-0.6-1.34-2.02-2.22l-1.94-1.22c-2.16-1.36-3.04-2.2-3.04-3.7 0-2.46 2.4-4.16 4.88-4.16 1.52 0 3.46 0.66 3.24 1.34l-0.24 0.76c-0.62 1.94-1.12-0.74-3.86-0.74-1.42 0-2.16 0.72-2.16 1.78 0 0.9 0.54 1.4 1.88 2.22l2.1 1.3c2.12 1.32 2.98 2.22 2.98 3.66 0 2.5-2.46 4.32-5.14 4.32zm7.14-0.32c-0.16 0-0.28-0.66-0.12-0.68 1.02-0.14 1.66-0.54 1.66-1.8v-9.04c0-1.26-0.64-1.66-1.66-1.8-0.16-0.02-0.04-0.68 0.12-0.68h5.48c0.16 0 0.28 0.66 0.12 0.68-0.86 0.12-1.66 0.4-1.66 1.8v9.04c0 1.4 0.8 1.68 1.66 1.8 0.16 0.02 0.04 0.68-0.12 0.68h-5.48zm7.18 0.04c-0.2 0.02-0.28-0.68-0.12-0.72 1.16-0.3 2.06-0.48 2.06-1.96v-8.88c0-1.4-0.82-1.68-1.68-1.8-0.16-0.02-0.04-0.68 0.1-0.68h5.52c0.14 0 0.24 0.66 0.1 0.68-0.84 0.1-1.64 0.4-1.64 1.8v8.88c0 1.14 0.48 1.56 2.14 1.56 3.02 0 4.22-1.38 4.7-2.14 0.14-0.22 0.68-0.12 0.68 0.22 0 1.02-0.86 3.04-2.12 3.04-1.12-0.06-2.22-0.12-3.9-0.12-1.84 0-4.02-0.06-5.84 0.12zm26.84-14.04c0.24 0 0.3 0.64 0.06 0.68-0.78 0.12-1.46 0.68-2.38 2.12l-3.2 5v3.72c0 1.4 0.8 1.64 2.04 1.8 0.14 0.02 0.04 0.68-0.12 0.68h-6.26c-0.16 0-0.26-0.66-0.12-0.68 1.32-0.18 2.06-0.44 2.06-1.8v-3.64l-3.36-5.06c-0.92-1.38-1.48-2-2.34-2.14-0.26-0.04-0.2-0.68 0.06-0.68h5.28c0.26 0 0.3 0.64 0.06 0.68-0.88 0.14-1.22 0.82-0.36 2.12l2.54 3.78 2.44-3.78c0.84-1.3 0.34-1.96-0.72-2.12-0.28-0.04-0.2-0.68 0.04-0.68h4.28z"/>
</g>
</svg>
